<?xml version="1.0" standalone="no"?>
<!DOCTYPE svg PUBLIC "-//W3C//DTD SVG 20010904//EN"
 "http://www.w3.org/TR/2001/REC-SVG-20010904/DTD/svg10.dtd">
<svg version="1.0" xmlns="http://www.w3.org/2000/svg"
 width="106.000000pt" height="106.000000pt" viewBox="0 0 106.000000 106.000000"
 preserveAspectRatio="xMidYMid meet">
<metadata>
Created by potrace 1.14, written by Peter Selinger 2001-2017
</metadata>
<g transform="translate(0.000000,106.000000) scale(0.100000,-0.100000)"
fill="#000000" stroke="none">
<path d="M1013 1010 c3 -11 1 -18 -4 -14 -8 5 -13 -8 -11 -27 1 -4 -8 -4 -20
-1 -17 4 -20 2 -15 -12 5 -11 3 -15 -5 -10 -7 5 -9 2 -5 -9 4 -11 2 -14 -9
-10 -7 3 -14 0 -14 -6 0 -6 -7 -11 -15 -11 -8 0 -15 -5 -15 -11 0 -7 -8 -18
-17 -26 -10 -8 -12 -11 -4 -7 9 4 12 3 7 -4 -4 -6 -13 -9 -21 -5 -9 3 -15 -1
-15 -11 0 -9 -5 -16 -11 -16 -6 0 -8 -7 -5 -16 3 -8 2 -13 -3 -9 -15 9 -43 -7
-37 -21 3 -8 0 -13 -6 -11 -7 1 -12 -5 -13 -13 0 -8 -6 -16 -12 -16 -7 -1 -17
-2 -21 -3 -5 0 -15 -12 -22 -26 -7 -14 -20 -25 -28 -25 -8 0 -12 -6 -9 -15 4
-8 1 -17 -5 -21 -7 -5 -8 -2 -4 7 4 8 -2 3 -13 -11 -11 -14 -21 -21 -21 -15 0
5 -7 -1 -16 -13 -8 -12 -12 -26 -9 -32 3 -5 0 -7 -8 -4 -18 7 -59 -35 -52 -54
2 -7 1 -11 -4 -7 -16 9 -39 -6 -45 -31 -4 -14 -11 -22 -15 -19 -5 3 -12 -1
-14 -7 -4 -10 -6 -10 -6 0 -1 7 -5 10 -11 7 -9 -5 -11 -1 -10 20 1 3 -7 13
-16 22 -12 12 -18 13 -24 4 -5 -10 -9 -9 -13 4 -5 11 -3 14 6 10 6 -4 3 1 -7
9 -11 9 -17 16 -13 16 5 0 2 6 -5 14 -8 8 -15 10 -19 4 -4 -6 -13 4 -20 21 -8
17 -20 31 -27 31 -7 0 -22 16 -33 35 -13 21 -28 34 -37 33 -9 -2 -17 2 -18 7
-2 20 -16 45 -26 45 -5 0 -16 7 -24 15 -9 8 -13 15 -9 15 4 0 0 7 -9 15 -8 8
-19 15 -25 15 -6 0 -11 5 -11 11 0 5 -4 8 -9 5 -5 -3 -8 2 -7 11 0 10 -3 18
-9 18 -16 1 -55 38 -49 47 3 4 2 8 -3 9 -4 0 -16 2 -25 4 -17 3 -18 -23 -18
-441 l0 -444 530 0 530 0 0 500 0 500 -26 0 c-21 0 -25 -4 -21 -20z"/>
</g>
</svg>
